# xmcd
#
# Track frame offsets: 
#        150
#        20885
#        42887
#        64160
#        84475
#        106537
#        129110
#        147915
#
# Disc length: 2243 seconds
#
# Revision: 1
# Processed by: cddbd v1.5.2PL0 Copyright (c) Steve Scherf et al.
# Submitted via: ExactAudioCopy v0.99pb5
#
DISCID=6108c108
DTITLE=Salsa - Edwin Rivera - Baby Baby Baby
DYEAR=1995
DGENRE=Salsa
TTITLE0=Si Nena
TTITLE1=Reencuentro
TTITLE2=Que Quieres De Mi
TTITLE3=Nada
TTITLE4=Baby, Baby, Baby
TTITLE5=No Hay Amor Como El Tuyo
TTITLE6=Nadie Como Tu
TTITLE7=Que Suerte La Mia
EXTD=YEAR: 1995
EXTT0=
EXTT1=
EXTT2=
EXTT3=
EXTT4=
EXTT5=
EXTT6=
EXTT7=
PLAYORDER=
